<svg width="83" height="147" viewBox="0 0 83 147" fill="none" xmlns="http://www.w3.org/2000/svg">
<mask id="path-1-outside-1_4007_9777" maskUnits="userSpaceOnUse" x="-0.957031" y="-0.0820312" width="84" height="147" fill="black">
<rect fill="white" x="-0.957031" y="-0.0820312" width="84" height="147"/>
<path d="M38.3516 143.918V38.4492H37.5703L3 61.3008V26.6328L38.3516 3H79.7578V143.918H38.3516Z"/>
</mask>
<path d="M38.3516 143.918H35.3516V146.918H38.3516V143.918ZM38.3516 38.4492H41.3516V35.4492H38.3516V38.4492ZM37.5703 38.4492V35.4492H36.6684L35.916 35.9466L37.5703 38.4492ZM3 61.3008H0V66.88L4.6543 63.8034L3 61.3008ZM3 26.6328L1.33272 24.1388L0 25.0297V26.6328H3ZM38.3516 3V0H37.4412L36.6843 0.50597L38.3516 3ZM79.7578 3H82.7578V0H79.7578V3ZM79.7578 143.918V146.918H82.7578V143.918H79.7578ZM41.3516 143.918V38.4492H35.3516V143.918H41.3516ZM38.3516 35.4492H37.5703V41.4492H38.3516V35.4492ZM35.916 35.9466L1.3457 58.7981L4.6543 63.8034L39.2246 40.9519L35.916 35.9466ZM6 61.3008V26.6328H0V61.3008H6ZM4.66728 29.1268L40.0188 5.49403L36.6843 0.50597L1.33272 24.1388L4.66728 29.1268ZM38.3516 6H79.7578V0H38.3516V6ZM76.7578 3V143.918H82.7578V3H76.7578ZM79.7578 140.918H38.3516V146.918H79.7578V140.918Z" fill="black" mask="url(#path-1-outside-1_4007_9777)"/>
<path d="M38.3516 143.918H35.3516V146.918H38.3516V143.918ZM38.3516 38.4492H41.3516V35.4492H38.3516V38.4492ZM37.5703 38.4492V35.4492H36.6684L35.916 35.9466L37.5703 38.4492ZM3 61.3008H0V66.88L4.6543 63.8034L3 61.3008ZM3 26.6328L1.33272 24.1388L0 25.0297V26.6328H3ZM38.3516 3V0H37.4412L36.6843 0.50597L38.3516 3ZM79.7578 3H82.7578V0H79.7578V3ZM79.7578 143.918V146.918H82.7578V143.918H79.7578ZM41.3516 143.918V38.4492H35.3516V143.918H41.3516ZM38.3516 35.4492H37.5703V41.4492H38.3516V35.4492ZM35.916 35.9466L1.3457 58.7981L4.6543 63.8034L39.2246 40.9519L35.916 35.9466ZM6 61.3008V26.6328H0V61.3008H6ZM4.66728 29.1268L40.0188 5.49403L36.6843 0.50597L1.33272 24.1388L4.66728 29.1268ZM38.3516 6H79.7578V0H38.3516V6ZM76.7578 3V143.918H82.7578V3H76.7578ZM79.7578 140.918H38.3516V146.918H79.7578V140.918Z" fill="url(#paint0_linear_4007_9777)" mask="url(#path-1-outside-1_4007_9777)"/>
<defs>
<linearGradient id="paint0_linear_4007_9777" x1="-5.51738" y1="-41.107" x2="103.569" y2="-38.9689" gradientUnits="userSpaceOnUse">
<stop stop-color="#FAFF00"/>
<stop offset="0.33" stop-color="#FF1000"/>
<stop offset="1" stop-color="#FF6A00"/>
</linearGradient>
</defs>
</svg>
