<svg width="121" height="150" viewBox="0 0 121 150" fill="none" xmlns="http://www.w3.org/2000/svg">
<mask id="path-1-outside-1_4007_9781" maskUnits="userSpaceOnUse" x="-0.492188" y="-0.542969" width="121" height="150" fill="black">
<rect fill="white" x="-0.492188" y="-0.542969" width="121" height="150"/>
<path d="M5.44141 146.457V118.234L55.4414 76.8281C72.7266 62.5703 75.8516 56.418 75.8516 48.6055V48.4102C75.8516 39.7188 69.1133 33.5664 59.3477 33.5664C48.1172 33.5664 41.5742 40.5 40.793 50.6562L40.6953 51.9258H3V50.9492C3 22.3359 25.9492 3 59.3477 3C93.4297 3 115.695 19.9922 115.695 45.8711V46.0664C115.695 64.9141 106.613 75.4609 83.957 93.7227L58.3711 114.426V115.207H117.355V146.457H5.44141Z"/>
</mask>
<path d="M5.44141 146.457H2.44141V149.457H5.44141V146.457ZM5.44141 118.234L3.52796 115.924L2.44141 116.824V118.234H5.44141ZM55.4414 76.8281L53.5324 74.5138L53.528 74.5176L55.4414 76.8281ZM40.6953 51.9258V54.9258H43.4734L43.6865 52.1559L40.6953 51.9258ZM3 51.9258H0V54.9258H3V51.9258ZM83.957 93.7227L82.0744 91.3869L82.0699 91.3905L83.957 93.7227ZM58.3711 114.426L56.484 112.094L55.3711 112.994V114.426H58.3711ZM58.3711 115.207H55.3711V118.207H58.3711V115.207ZM117.355 115.207H120.355V112.207H117.355V115.207ZM117.355 146.457V149.457H120.355V146.457H117.355ZM8.44141 146.457V118.234H2.44141V146.457H8.44141ZM7.35485 120.545L57.3548 79.1387L53.528 74.5176L3.52796 115.924L7.35485 120.545ZM57.3504 79.1424C66.0335 71.98 71.4117 66.657 74.6038 61.9946C77.9149 57.1585 78.8516 53.0662 78.8516 48.6055H72.8516C72.8516 51.9573 72.2257 54.8473 69.653 58.605C66.9614 62.5364 62.1344 67.4184 53.5325 74.5138L57.3504 79.1424ZM78.8516 48.6055V48.4102H72.8516V48.6055H78.8516ZM78.8516 48.4102C78.8516 43.2466 76.83 38.7164 73.2727 35.5028C69.7366 32.3085 64.859 30.5664 59.3477 30.5664V36.5664C63.6019 36.5664 66.9762 37.9005 69.2507 39.9552C71.5039 41.9907 72.8516 44.8823 72.8516 48.4102H78.8516ZM59.3477 30.5664C53.0946 30.5664 47.8635 32.5115 44.0774 36.1355C40.3065 39.7451 38.2375 44.7624 37.8018 50.4262L43.7841 50.8863C44.1297 46.3938 45.7228 42.8663 48.2263 40.4699C50.7146 38.0881 54.3702 36.5664 59.3477 36.5664V30.5664ZM37.8018 50.4262L37.7041 51.6957L43.6865 52.1559L43.7841 50.8863L37.8018 50.4262ZM40.6953 48.9258H3V54.9258H40.6953V48.9258ZM6 51.9258V50.9492H0V51.9258H6ZM6 50.9492C6 37.5056 11.3636 26.3612 20.5904 18.5321C29.8578 10.6685 43.2122 6 59.3477 6V0C42.0847 0 27.2653 4.99943 16.7084 13.9571C6.11097 22.9493 0 35.7795 0 50.9492H6ZM59.3477 6C75.9244 6 89.3153 10.1353 98.4847 17.1177C107.581 24.0448 112.695 33.887 112.695 45.8711H118.695C118.695 31.9762 112.676 20.383 102.12 12.3442C91.6359 4.36084 76.8529 0 59.3477 0V6ZM112.695 45.8711V46.0664H118.695V45.8711H112.695ZM112.695 46.0664C112.695 54.9069 110.596 61.6474 105.866 68.3917C101.031 75.2864 93.3988 82.2591 82.0744 91.3869L85.8397 96.0584C97.1715 86.9245 105.409 79.4929 110.778 71.8369C116.253 64.0303 118.695 56.0735 118.695 46.0664H112.695ZM82.0699 91.3905L56.484 112.094L60.2582 116.758L85.8441 96.0548L82.0699 91.3905ZM55.3711 114.426V115.207H61.3711V114.426H55.3711ZM58.3711 118.207H117.355V112.207H58.3711V118.207ZM114.355 115.207V146.457H120.355V115.207H114.355ZM117.355 143.457H5.44141V149.457H117.355V143.457Z" fill="black" mask="url(#path-1-outside-1_4007_9781)"/>
<path d="M5.44141 146.457H2.44141V149.457H5.44141V146.457ZM5.44141 118.234L3.52796 115.924L2.44141 116.824V118.234H5.44141ZM55.4414 76.8281L53.5324 74.5138L53.528 74.5176L55.4414 76.8281ZM40.6953 51.9258V54.9258H43.4734L43.6865 52.1559L40.6953 51.9258ZM3 51.9258H0V54.9258H3V51.9258ZM83.957 93.7227L82.0744 91.3869L82.0699 91.3905L83.957 93.7227ZM58.3711 114.426L56.484 112.094L55.3711 112.994V114.426H58.3711ZM58.3711 115.207H55.3711V118.207H58.3711V115.207ZM117.355 115.207H120.355V112.207H117.355V115.207ZM117.355 146.457V149.457H120.355V146.457H117.355ZM8.44141 146.457V118.234H2.44141V146.457H8.44141ZM7.35485 120.545L57.3548 79.1387L53.528 74.5176L3.52796 115.924L7.35485 120.545ZM57.3504 79.1424C66.0335 71.98 71.4117 66.657 74.6038 61.9946C77.9149 57.1585 78.8516 53.0662 78.8516 48.6055H72.8516C72.8516 51.9573 72.2257 54.8473 69.653 58.605C66.9614 62.5364 62.1344 67.4184 53.5325 74.5138L57.3504 79.1424ZM78.8516 48.6055V48.4102H72.8516V48.6055H78.8516ZM78.8516 48.4102C78.8516 43.2466 76.83 38.7164 73.2727 35.5028C69.7366 32.3085 64.859 30.5664 59.3477 30.5664V36.5664C63.6019 36.5664 66.9762 37.9005 69.2507 39.9552C71.5039 41.9907 72.8516 44.8823 72.8516 48.4102H78.8516ZM59.3477 30.5664C53.0946 30.5664 47.8635 32.5115 44.0774 36.1355C40.3065 39.7451 38.2375 44.7624 37.8018 50.4262L43.7841 50.8863C44.1297 46.3938 45.7228 42.8663 48.2263 40.4699C50.7146 38.0881 54.3702 36.5664 59.3477 36.5664V30.5664ZM37.8018 50.4262L37.7041 51.6957L43.6865 52.1559L43.7841 50.8863L37.8018 50.4262ZM40.6953 48.9258H3V54.9258H40.6953V48.9258ZM6 51.9258V50.9492H0V51.9258H6ZM6 50.9492C6 37.5056 11.3636 26.3612 20.5904 18.5321C29.8578 10.6685 43.2122 6 59.3477 6V0C42.0847 0 27.2653 4.99943 16.7084 13.9571C6.11097 22.9493 0 35.7795 0 50.9492H6ZM59.3477 6C75.9244 6 89.3153 10.1353 98.4847 17.1177C107.581 24.0448 112.695 33.887 112.695 45.8711H118.695C118.695 31.9762 112.676 20.383 102.12 12.3442C91.6359 4.36084 76.8529 0 59.3477 0V6ZM112.695 45.8711V46.0664H118.695V45.8711H112.695ZM112.695 46.0664C112.695 54.9069 110.596 61.6474 105.866 68.3917C101.031 75.2864 93.3988 82.2591 82.0744 91.3869L85.8397 96.0584C97.1715 86.9245 105.409 79.4929 110.778 71.8369C116.253 64.0303 118.695 56.0735 118.695 46.0664H112.695ZM82.0699 91.3905L56.484 112.094L60.2582 116.758L85.8441 96.0548L82.0699 91.3905ZM55.3711 114.426V115.207H61.3711V114.426H55.3711ZM58.3711 118.207H117.355V112.207H58.3711V118.207ZM114.355 115.207V146.457H120.355V115.207H114.355ZM117.355 143.457H5.44141V149.457H117.355V143.457Z" fill="url(#paint0_linear_4007_9781)" mask="url(#path-1-outside-1_4007_9781)"/>
<defs>
<linearGradient id="paint0_linear_4007_9781" x1="-4.18723" y1="-38.568" x2="131.093" y2="-35.279" gradientUnits="userSpaceOnUse">
<stop stop-color="#FAFF00"/>
<stop offset="0.33" stop-color="#FF1000"/>
<stop offset="1" stop-color="#FF6A00"/>
</linearGradient>
</defs>
</svg>
