<svg width="127" height="152" viewBox="0 0 127 152" fill="none" xmlns="http://www.w3.org/2000/svg">
<mask id="path-1-outside-1_4007_9785" maskUnits="userSpaceOnUse" x="-0.921875" y="-0.542969" width="128" height="153" fill="black">
<rect fill="white" x="-0.921875" y="-0.542969" width="128" height="153"/>
<path d="M63.1016 148.996C28.4336 148.996 5.38672 131.613 3.33594 105.246L3.23828 103.977H42.6914L42.8867 105.148C43.9609 111.398 51.2852 116.867 63.0039 116.867C74.7227 116.867 81.7539 111.008 81.7539 102.805V102.609C81.7539 93.0391 74.0391 87.8633 59.6836 87.8633H45.1328V60.6172H59.6836C72.4766 60.6172 79.8984 55.3438 79.8984 46.6523V46.457C79.8984 38.2539 73.3555 33.1758 62.8086 33.1758C51.7734 33.1758 44.9375 38.5469 44.0586 46.1641L43.9609 47.043H6.65625L6.75391 45.5781C8.51172 19.6992 29.9961 3 62.8086 3C96.5977 3 117.984 17.7461 117.984 40.6953V40.8906C117.984 58.6641 104.508 69.6992 89.0781 72.7266V73.5078C110.465 75.7539 123.844 87.1797 123.844 105.441V105.637C123.844 132.395 100.699 148.996 63.1016 148.996Z"/>
</mask>
<path d="M3.33594 105.246L0.344773 105.476L0.344971 105.479L3.33594 105.246ZM3.23828 103.977V100.977H-0.00135064L0.247118 104.207L3.23828 103.977ZM42.6914 103.977L45.6506 103.483L45.2328 100.977H42.6914V103.977ZM42.8867 105.148L39.9275 105.642L39.9288 105.649L39.9301 105.657L42.8867 105.148ZM45.1328 87.8633H42.1328V90.8633H45.1328V87.8633ZM45.1328 60.6172V57.6172H42.1328V60.6172H45.1328ZM44.0586 46.1641L41.0783 45.8202L41.0769 45.8328L44.0586 46.1641ZM43.9609 47.043V50.043H46.6461L46.9426 47.3743L43.9609 47.043ZM6.65625 47.043L3.66289 46.8434L3.44959 50.043H6.65625V47.043ZM6.75391 45.5781L3.7608 45.3748L3.76055 45.3786L6.75391 45.5781ZM89.0781 72.7266L88.5005 69.7827L86.0781 70.258V72.7266H89.0781ZM89.0781 73.5078H86.0781V76.2092L88.7648 76.4914L89.0781 73.5078ZM63.1016 145.996C46.2455 145.996 32.4871 141.769 22.769 134.595C13.102 127.459 7.28326 117.31 6.3269 105.013L0.344971 105.479C1.43939 119.55 8.16948 131.275 19.2056 139.422C30.1906 147.532 45.2896 151.996 63.1016 151.996V145.996ZM6.3271 105.016L6.22944 103.746L0.247118 104.207L0.344774 105.476L6.3271 105.016ZM3.23828 106.977H42.6914V100.977H3.23828V106.977ZM39.7322 104.47L39.9275 105.642L45.8459 104.655L45.6506 103.483L39.7322 104.47ZM39.9301 105.657C41.3656 114.009 50.6195 119.867 63.0039 119.867V113.867C51.9508 113.867 46.5562 108.788 45.8434 104.64L39.9301 105.657ZM63.0039 119.867C69.3325 119.867 74.7242 118.287 78.6078 115.286C82.5554 112.236 84.7539 107.848 84.7539 102.805H78.7539C78.7539 105.964 77.4368 108.608 74.9391 110.538C72.3774 112.518 68.3941 113.867 63.0039 113.867V119.867ZM84.7539 102.805V102.609H78.7539V102.805H84.7539ZM84.7539 102.609C84.7539 96.8829 82.3742 92.2334 77.7699 89.1538C73.3455 86.1945 67.143 84.8633 59.6836 84.8633V90.8633C66.5796 90.8633 71.4123 92.1199 74.4342 94.1411C77.2762 96.042 78.7539 98.7656 78.7539 102.609H84.7539ZM59.6836 84.8633H45.1328V90.8633H59.6836V84.8633ZM48.1328 87.8633V60.6172H42.1328V87.8633H48.1328ZM45.1328 63.6172H59.6836V57.6172H45.1328V63.6172ZM59.6836 63.6172C66.4342 63.6172 72.1676 62.2345 76.3023 59.3562C80.5642 56.3895 82.8984 51.9778 82.8984 46.6523H76.8984C76.8984 50.0182 75.5217 52.589 72.8744 54.4319C70.1 56.3632 65.726 57.6172 59.6836 57.6172V63.6172ZM82.8984 46.6523V46.457H76.8984V46.6523H82.8984ZM82.8984 46.457C82.8984 41.4725 80.8683 37.2605 77.1491 34.3711C73.5149 31.5479 68.5236 30.1758 62.8086 30.1758V36.1758C67.6405 36.1758 71.1941 37.3427 73.4681 39.1093C75.6571 40.8098 76.8984 43.2384 76.8984 46.457H82.8984ZM62.8086 30.1758C56.8242 30.1758 51.7007 31.6316 47.876 34.3761C44.0087 37.151 41.6173 41.1495 41.0784 45.8202L47.0388 46.5079C47.3788 43.5615 48.8448 41.0658 51.374 39.2509C53.9458 37.4055 57.7579 36.1758 62.8086 36.1758V30.1758ZM41.0769 45.8328L40.9793 46.7117L46.9426 47.3743L47.0402 46.4954L41.0769 45.8328ZM43.9609 44.043H6.65625V50.043H43.9609V44.043ZM9.64961 47.2425L9.74726 45.7777L3.76055 45.3786L3.66289 46.8434L9.64961 47.2425ZM9.74701 45.7814C10.5684 33.6889 15.9626 23.8445 24.9578 16.9678C34.0049 10.0514 46.8886 6 62.8086 6V0C45.916 0 31.6514 4.29817 21.3137 12.2011C10.9241 20.1438 4.69724 31.5884 3.7608 45.3748L9.74701 45.7814ZM62.8086 6C79.3149 6 92.4542 9.60844 101.372 15.7168C110.192 21.7577 114.984 30.2875 114.984 40.6953H120.984C120.984 28.1539 115.084 17.8361 104.763 10.7666C94.54 3.76461 80.0913 0 62.8086 0V6ZM114.984 40.6953V40.8906H120.984V40.6953H114.984ZM114.984 40.8906C114.984 56.7845 103.011 66.9357 88.5005 69.7827L89.6557 75.6704C106.004 72.4628 120.984 60.5436 120.984 40.8906H114.984ZM86.0781 72.7266V73.5078H92.0781V72.7266H86.0781ZM88.7648 76.4914C99.0288 77.5694 107.057 80.8199 112.473 85.698C117.825 90.5178 120.844 97.1129 120.844 105.441H126.844C126.844 95.5082 123.173 87.2596 116.489 81.2395C109.869 75.2778 100.514 71.6924 89.3915 70.5242L88.7648 76.4914ZM120.844 105.441V105.637H126.844V105.441H120.844ZM120.844 105.637C120.844 118.033 115.537 127.97 105.827 134.91C96.012 141.926 81.5081 145.996 63.1016 145.996V151.996C82.2927 151.996 98.1599 147.766 109.316 139.791C120.579 131.741 126.844 119.998 126.844 105.637H120.844Z" fill="black" mask="url(#path-1-outside-1_4007_9785)"/>
<path d="M3.33594 105.246L0.344773 105.476L0.344971 105.479L3.33594 105.246ZM3.23828 103.977V100.977H-0.00135064L0.247118 104.207L3.23828 103.977ZM42.6914 103.977L45.6506 103.483L45.2328 100.977H42.6914V103.977ZM42.8867 105.148L39.9275 105.642L39.9288 105.649L39.9301 105.657L42.8867 105.148ZM45.1328 87.8633H42.1328V90.8633H45.1328V87.8633ZM45.1328 60.6172V57.6172H42.1328V60.6172H45.1328ZM44.0586 46.1641L41.0783 45.8202L41.0769 45.8328L44.0586 46.1641ZM43.9609 47.043V50.043H46.6461L46.9426 47.3743L43.9609 47.043ZM6.65625 47.043L3.66289 46.8434L3.44959 50.043H6.65625V47.043ZM6.75391 45.5781L3.7608 45.3748L3.76055 45.3786L6.75391 45.5781ZM89.0781 72.7266L88.5005 69.7827L86.0781 70.258V72.7266H89.0781ZM89.0781 73.5078H86.0781V76.2092L88.7648 76.4914L89.0781 73.5078ZM63.1016 145.996C46.2455 145.996 32.4871 141.769 22.769 134.595C13.102 127.459 7.28326 117.31 6.3269 105.013L0.344971 105.479C1.43939 119.55 8.16948 131.275 19.2056 139.422C30.1906 147.532 45.2896 151.996 63.1016 151.996V145.996ZM6.3271 105.016L6.22944 103.746L0.247118 104.207L0.344774 105.476L6.3271 105.016ZM3.23828 106.977H42.6914V100.977H3.23828V106.977ZM39.7322 104.47L39.9275 105.642L45.8459 104.655L45.6506 103.483L39.7322 104.47ZM39.9301 105.657C41.3656 114.009 50.6195 119.867 63.0039 119.867V113.867C51.9508 113.867 46.5562 108.788 45.8434 104.64L39.9301 105.657ZM63.0039 119.867C69.3325 119.867 74.7242 118.287 78.6078 115.286C82.5554 112.236 84.7539 107.848 84.7539 102.805H78.7539C78.7539 105.964 77.4368 108.608 74.9391 110.538C72.3774 112.518 68.3941 113.867 63.0039 113.867V119.867ZM84.7539 102.805V102.609H78.7539V102.805H84.7539ZM84.7539 102.609C84.7539 96.8829 82.3742 92.2334 77.7699 89.1538C73.3455 86.1945 67.143 84.8633 59.6836 84.8633V90.8633C66.5796 90.8633 71.4123 92.1199 74.4342 94.1411C77.2762 96.042 78.7539 98.7656 78.7539 102.609H84.7539ZM59.6836 84.8633H45.1328V90.8633H59.6836V84.8633ZM48.1328 87.8633V60.6172H42.1328V87.8633H48.1328ZM45.1328 63.6172H59.6836V57.6172H45.1328V63.6172ZM59.6836 63.6172C66.4342 63.6172 72.1676 62.2345 76.3023 59.3562C80.5642 56.3895 82.8984 51.9778 82.8984 46.6523H76.8984C76.8984 50.0182 75.5217 52.589 72.8744 54.4319C70.1 56.3632 65.726 57.6172 59.6836 57.6172V63.6172ZM82.8984 46.6523V46.457H76.8984V46.6523H82.8984ZM82.8984 46.457C82.8984 41.4725 80.8683 37.2605 77.1491 34.3711C73.5149 31.5479 68.5236 30.1758 62.8086 30.1758V36.1758C67.6405 36.1758 71.1941 37.3427 73.4681 39.1093C75.6571 40.8098 76.8984 43.2384 76.8984 46.457H82.8984ZM62.8086 30.1758C56.8242 30.1758 51.7007 31.6316 47.876 34.3761C44.0087 37.151 41.6173 41.1495 41.0784 45.8202L47.0388 46.5079C47.3788 43.5615 48.8448 41.0658 51.374 39.2509C53.9458 37.4055 57.7579 36.1758 62.8086 36.1758V30.1758ZM41.0769 45.8328L40.9793 46.7117L46.9426 47.3743L47.0402 46.4954L41.0769 45.8328ZM43.9609 44.043H6.65625V50.043H43.9609V44.043ZM9.64961 47.2425L9.74726 45.7777L3.76055 45.3786L3.66289 46.8434L9.64961 47.2425ZM9.74701 45.7814C10.5684 33.6889 15.9626 23.8445 24.9578 16.9678C34.0049 10.0514 46.8886 6 62.8086 6V0C45.916 0 31.6514 4.29817 21.3137 12.2011C10.9241 20.1438 4.69724 31.5884 3.7608 45.3748L9.74701 45.7814ZM62.8086 6C79.3149 6 92.4542 9.60844 101.372 15.7168C110.192 21.7577 114.984 30.2875 114.984 40.6953H120.984C120.984 28.1539 115.084 17.8361 104.763 10.7666C94.54 3.76461 80.0913 0 62.8086 0V6ZM114.984 40.6953V40.8906H120.984V40.6953H114.984ZM114.984 40.8906C114.984 56.7845 103.011 66.9357 88.5005 69.7827L89.6557 75.6704C106.004 72.4628 120.984 60.5436 120.984 40.8906H114.984ZM86.0781 72.7266V73.5078H92.0781V72.7266H86.0781ZM88.7648 76.4914C99.0288 77.5694 107.057 80.8199 112.473 85.698C117.825 90.5178 120.844 97.1129 120.844 105.441H126.844C126.844 95.5082 123.173 87.2596 116.489 81.2395C109.869 75.2778 100.514 71.6924 89.3915 70.5242L88.7648 76.4914ZM120.844 105.441V105.637H126.844V105.441H120.844ZM120.844 105.637C120.844 118.033 115.537 127.97 105.827 134.91C96.012 141.926 81.5081 145.996 63.1016 145.996V151.996C82.2927 151.996 98.1599 147.766 109.316 139.791C120.579 131.741 126.844 119.998 126.844 105.637H120.844Z" fill="url(#paint0_linear_4007_9785)" mask="url(#path-1-outside-1_4007_9785)"/>
<defs>
<linearGradient id="paint0_linear_4007_9785" x1="-3.64386" y1="-38.568" x2="136.873" y2="-35.0192" gradientUnits="userSpaceOnUse">
<stop stop-color="#FAFF00"/>
<stop offset="0.33" stop-color="#FF1000"/>
<stop offset="1" stop-color="#FF6A00"/>
</linearGradient>
</defs>
</svg>
