<svg width="132" height="147" viewBox="0 0 132 147" fill="none" xmlns="http://www.w3.org/2000/svg">
<mask id="path-1-outside-1_4007_9789" maskUnits="userSpaceOnUse" x="-0.902344" y="-0.0820312" width="133" height="147" fill="black">
<rect fill="white" x="-0.902344" y="-0.0820312" width="133" height="147"/>
<path d="M72.3359 143.918V121.555H3V88.2539L54.1719 3H111.398V89.8164H128.684V121.555H111.398V143.918H72.3359ZM36.8867 91.4766H73.5078V30.6367H72.7266L36.8867 90.3047V91.4766Z"/>
</mask>
<path d="M72.3359 143.918H69.3359V146.918H72.3359V143.918ZM72.3359 121.555H75.3359V118.555H72.3359V121.555ZM3 121.555H0V124.555H3V121.555ZM3 88.2539L0.427781 86.71L0 87.4227V88.2539H3ZM54.1719 3V0H52.4736L51.5997 1.45608L54.1719 3ZM111.398 3H114.398V0H111.398V3ZM111.398 89.8164H108.398V92.8164H111.398V89.8164ZM128.684 89.8164H131.684V86.8164H128.684V89.8164ZM128.684 121.555V124.555H131.684V121.555H128.684ZM111.398 121.555V118.555H108.398V121.555H111.398ZM111.398 143.918V146.918H114.398V143.918H111.398ZM36.8867 91.4766H33.8867V94.4766H36.8867V91.4766ZM73.5078 91.4766V94.4766H76.5078V91.4766H73.5078ZM73.5078 30.6367H76.5078V27.6367H73.5078V30.6367ZM72.7266 30.6367V27.6367H71.0289L70.1548 29.092L72.7266 30.6367ZM36.8867 90.3047L34.315 88.76L33.8867 89.473V90.3047H36.8867ZM75.3359 143.918V121.555H69.3359V143.918H75.3359ZM72.3359 118.555H3V124.555H72.3359V118.555ZM6 121.555V88.2539H0V121.555H6ZM5.57222 89.7978L56.7441 4.54392L51.5997 1.45608L0.427781 86.71L5.57222 89.7978ZM54.1719 6H111.398V0H54.1719V6ZM108.398 3V89.8164H114.398V3H108.398ZM111.398 92.8164H128.684V86.8164H111.398V92.8164ZM125.684 89.8164V121.555H131.684V89.8164H125.684ZM128.684 118.555H111.398V124.555H128.684V118.555ZM108.398 121.555V143.918H114.398V121.555H108.398ZM111.398 140.918H72.3359V146.918H111.398V140.918ZM36.8867 94.4766H73.5078V88.4766H36.8867V94.4766ZM76.5078 91.4766V30.6367H70.5078V91.4766H76.5078ZM73.5078 27.6367H72.7266V33.6367H73.5078V27.6367ZM70.1548 29.092L34.315 88.76L39.4585 91.8494L75.2983 32.1814L70.1548 29.092ZM33.8867 90.3047V91.4766H39.8867V90.3047H33.8867Z" fill="black" mask="url(#path-1-outside-1_4007_9789)"/>
<path d="M72.3359 143.918H69.3359V146.918H72.3359V143.918ZM72.3359 121.555H75.3359V118.555H72.3359V121.555ZM3 121.555H0V124.555H3V121.555ZM3 88.2539L0.427781 86.71L0 87.4227V88.2539H3ZM54.1719 3V0H52.4736L51.5997 1.45608L54.1719 3ZM111.398 3H114.398V0H111.398V3ZM111.398 89.8164H108.398V92.8164H111.398V89.8164ZM128.684 89.8164H131.684V86.8164H128.684V89.8164ZM128.684 121.555V124.555H131.684V121.555H128.684ZM111.398 121.555V118.555H108.398V121.555H111.398ZM111.398 143.918V146.918H114.398V143.918H111.398ZM36.8867 91.4766H33.8867V94.4766H36.8867V91.4766ZM73.5078 91.4766V94.4766H76.5078V91.4766H73.5078ZM73.5078 30.6367H76.5078V27.6367H73.5078V30.6367ZM72.7266 30.6367V27.6367H71.0289L70.1548 29.092L72.7266 30.6367ZM36.8867 90.3047L34.315 88.76L33.8867 89.473V90.3047H36.8867ZM75.3359 143.918V121.555H69.3359V143.918H75.3359ZM72.3359 118.555H3V124.555H72.3359V118.555ZM6 121.555V88.2539H0V121.555H6ZM5.57222 89.7978L56.7441 4.54392L51.5997 1.45608L0.427781 86.71L5.57222 89.7978ZM54.1719 6H111.398V0H54.1719V6ZM108.398 3V89.8164H114.398V3H108.398ZM111.398 92.8164H128.684V86.8164H111.398V92.8164ZM125.684 89.8164V121.555H131.684V89.8164H125.684ZM128.684 118.555H111.398V124.555H128.684V118.555ZM108.398 121.555V143.918H114.398V121.555H108.398ZM111.398 140.918H72.3359V146.918H111.398V140.918ZM36.8867 94.4766H73.5078V88.4766H36.8867V94.4766ZM76.5078 91.4766V30.6367H70.5078V91.4766H76.5078ZM73.5078 27.6367H72.7266V33.6367H73.5078V27.6367ZM70.1548 29.092L34.315 88.76L39.4585 91.8494L75.2983 32.1814L70.1548 29.092ZM33.8867 90.3047V91.4766H39.8867V90.3047H33.8867Z" fill="url(#paint0_linear_4007_9789)" mask="url(#path-1-outside-1_4007_9789)"/>
<defs>
<linearGradient id="paint0_linear_4007_9789" x1="-4.65127" y1="-41.107" x2="141.102" y2="-37.2887" gradientUnits="userSpaceOnUse">
<stop stop-color="#FAFF00"/>
<stop offset="0.33" stop-color="#FF1000"/>
<stop offset="1" stop-color="#FF6A00"/>
</linearGradient>
</defs>
</svg>
