<svg width="36" height="36" viewBox="0 0 36 36" fill="none" xmlns="http://www.w3.org/2000/svg">
<path d="M25.5 13.5L16.5 22.5M16.5 13.5L25.5 22.5M4.08 19.44L10.56 28.08C11.088 28.784 11.352 29.136 11.6866 29.3899C11.9829 29.6147 12.3185 29.7825 12.6762 29.8847C13.08 30 13.52 30 14.4 30H25.8C28.3202 30 29.5804 30 30.543 29.5095C31.3897 29.0781 32.0781 28.3897 32.5095 27.543C33 26.5804 33 25.3202 33 22.8V13.2C33 10.6798 33 9.41965 32.5095 8.45704C32.0781 7.61031 31.3897 6.9219 30.543 6.49047C29.5804 6 28.3202 6 25.8 6H14.4C13.52 6 13.08 6 12.6762 6.11534C12.3185 6.21749 11.9829 6.38527 11.6866 6.61013C11.352 6.864 11.088 7.216 10.56 7.92L4.08 16.56C3.69271 17.0764 3.49906 17.3346 3.42442 17.6181C3.35853 17.8685 3.35853 18.1315 3.42442 18.3819C3.49906 18.6654 3.69271 18.9236 4.08 19.44Z" stroke="white" stroke-width="3" stroke-linecap="round" stroke-linejoin="round"/>
</svg>
