<svg width="28" height="28" viewBox="0 0 28 28" fill="none" xmlns="http://www.w3.org/2000/svg">
<path d="M4.19954 0H23.8005C26.1201 0 28 1.87988 28 4.19954V23.8005C28 26.1201 26.1201 28 23.8005 28H4.19954C1.87988 28 0 26.1201 0 23.8005V4.19954C0 1.87988 1.87988 0 4.19954 0Z" fill="#F5C518"/>
<path d="M5.6875 17.9375V10.0625H3.5V17.9375H5.6875ZM10.3359 10.0625L9.84375 13.7266L9.57031 11.7578L9.29688 10.0625H6.5625V17.9375H8.42188V12.7422L9.1875 17.9375H10.5547L11.2656 12.6328V17.9375H13.125V10.0625H10.3359ZM14 17.9375V10.0625H17.3906C18.2109 10.0625 18.8125 10.6641 18.8125 11.4297V16.5703C18.8125 17.3359 18.2109 17.9375 17.3906 17.9375H14ZM16.5703 11.4844L16.0781 11.4297V16.5703C16.3516 16.5703 16.5703 16.5156 16.625 16.4063C16.7344 16.2969 16.7344 15.9688 16.7344 15.4219V12.3594V11.7031L16.5703 11.4844ZM22.9141 12.0313H23.0781C23.8438 12.0313 24.5 12.6328 24.5 13.3984V16.5703C24.5 17.3359 23.8438 17.9375 23.0781 17.9375H22.9141C22.4766 17.9375 22.0391 17.7188 21.7656 17.3359L21.6562 17.8281H19.6875V10.0625H21.7656V12.5781C22.0391 12.25 22.4766 12.0313 22.9141 12.0313ZM22.4766 15.8594V14L22.4219 13.3984C22.3672 13.2891 22.2031 13.2344 22.0938 13.2344C21.9844 13.2344 21.8203 13.2891 21.7656 13.3984V16.5156C21.8203 16.625 21.9844 16.6797 22.0938 16.6797C22.2031 16.6797 22.4219 16.625 22.4219 16.5156L22.4766 15.8594Z" fill="black"/>
</svg>
