<svg width="64" height="30" viewBox="0 0 64 30" fill="none" xmlns="http://www.w3.org/2000/svg">
<path d="M5.84597 0C1.85723 0 0 2.1675 0 5.5425V9.4575C0 12.96 0.658259 14.4525 3.29129 16.035L5.32876 17.25C6.97441 18.2025 7.18599 18.9075 7.18599 20.955V24.405C7.18599 25.4175 6.70797 26.0325 5.79895 26.0325C4.88992 26.0325 4.40407 25.455 4.40407 24.4125V18.99H0V24.45C0 27.8625 1.81805 30 5.75977 30C9.82686 30 11.6841 27.75 11.6841 24.4575V20.205C11.6841 16.9575 10.8221 15.285 8.31444 13.755L6.26913 12.495C4.83507 11.6175 4.49027 10.995 4.49027 8.745V5.58C4.49027 4.575 4.96829 3.9525 5.83029 3.9525C6.73932 3.9525 7.26436 4.5825 7.26436 5.58V10.95H11.6763V5.55C11.6841 2.205 9.82686 0 5.84597 0ZM13.079 4.5825H16.1979V29.5875H20.696V4.575H23.8149V0.4125H13.079V4.5825ZM53.2641 0.4125V4.5825H56.383V29.5875H60.8811V4.575H64V0.4125H53.2641ZM26.5811 0.4125L24.0735 29.58H28.5246L29.1436 21.78H32.4114L33.0227 29.58H37.5756L35.068 0.4125H26.5811ZM29.4571 17.8275L30.5228 4.3725H31.0557L32.1136 17.8275H29.4649H29.4571ZM51.6185 27.375V19.785C51.6185 17.37 50.6624 16.035 48.3664 15.5775V15.075C50.6546 14.7375 51.83 13.1175 51.83 10.4925V5.5425C51.83 2.3325 49.8396 0.4125 45.9841 0.4125H39.8717V29.58H44.3776V17.3775H47.1047V27.375C47.1047 29.0325 47.8413 29.58 47.8413 29.58H52.3394C52.3551 29.58 51.6185 29.0475 51.6185 27.375ZM47.3319 10.7025C47.3319 12.795 46.8539 13.41 45.3728 13.41H44.3855V4.38H45.5531C46.9401 4.38 47.3319 4.92 47.3319 7.08V10.7025Z" fill="#F8F8F8"/>
</svg>
