<svg width="32" height="33" viewBox="0 0 32 33" fill="none" xmlns="http://www.w3.org/2000/svg">
<path d="M14.8835 7.56998C14.8835 6.95348 15.3832 6.45371 15.9997 6.45371C16.6162 6.45371 17.116 6.95348 17.116 7.56998V15.3839H21.9531C22.5696 15.3839 23.0694 15.8836 23.0694 16.5001C23.0694 17.1166 22.5696 17.6164 21.9531 17.6164H15.9997C15.3832 17.6164 14.8835 17.1166 14.8835 16.5001V7.56998Z" fill="white"/>
<path d="M0 16.5001C0 7.66366 7.16332 0.500276 15.9997 0.500276C16.6162 0.500276 17.116 1.00005 17.116 1.61655C17.116 2.23304 16.6162 2.73282 15.9997 2.73282C8.39631 2.73282 2.23252 8.89665 2.23252 16.5001C2.23252 24.1036 8.39631 30.2675 15.9997 30.2675C23.6031 30.2675 29.7669 24.1036 29.7669 16.5001C29.7669 15.8836 30.2667 15.3839 30.8832 15.3839C31.4997 15.3839 31.9995 15.8836 31.9995 16.5001C31.9995 25.3365 24.8361 32.5 15.9997 32.5C7.16332 32.5 0 25.3365 0 16.5001Z" fill="white"/>
<path d="M29.5591 8.87957C30.0792 8.6274 30.6981 8.81518 30.9951 9.29671L31.0504 9.397L31.312 9.96386C31.4785 10.345 31.6294 10.7326 31.764 11.1252L31.953 11.7182L31.9806 11.8287C32.0859 12.3847 31.7544 12.9406 31.2001 13.1048C30.6458 13.2689 30.0658 12.9831 29.8512 12.4595L29.8135 12.3519L29.6521 11.849C29.5377 11.5152 29.4083 11.1846 29.2655 10.8577L29.0417 10.3708L28.9966 10.2662C28.8022 9.73465 29.0389 9.1318 29.5591 8.87957ZM25.3542 4.1078C25.7623 3.64574 26.4677 3.60244 26.9298 4.01042C27.2066 4.25484 27.4756 4.50819 27.7365 4.76913C27.8668 4.89955 27.9955 5.03159 28.1216 5.16593L28.4952 5.57581L28.5664 5.66593C28.8953 6.12578 28.8294 6.76923 28.3963 7.15138C27.9629 7.5337 27.3159 7.51829 26.9007 7.13394L26.8208 7.05255L26.4952 6.69499C26.3847 6.57734 26.2721 6.46175 26.158 6.34761C25.9296 6.11909 25.6947 5.89667 25.4531 5.68337C24.9909 5.27536 24.9462 4.56997 25.3542 4.1078ZM20.6697 0.519172L20.7816 0.546788L21.3601 0.729926C21.9362 0.926565 22.5013 1.15873 23.0519 1.42323C23.6074 1.69009 23.8417 2.35746 23.5752 2.91305C23.3083 3.46867 22.641 3.70305 22.0854 3.4363C21.6118 3.20881 21.1286 3.01034 20.6392 2.84328L20.1479 2.6863L20.0404 2.64851C19.517 2.434 19.2312 1.85384 19.395 1.29969C19.559 0.745908 20.1141 0.414704 20.6697 0.519172Z" fill="white"/>
</svg>
