<svg width="510" height="160" viewBox="0 0 510 160" fill="none" xmlns="http://www.w3.org/2000/svg">
<rect width="510" height="160" rx="16" fill="#1B1C1C"/>
<g clip-path="url(#clip0_4001_13428)">
<path fill-rule="evenodd" clip-rule="evenodd" d="M146.676 70.155V103.631C146.676 105.771 149.099 107.012 150.836 105.762L183.889 81.97C189.359 77.4754 191.636 64.4936 182.616 57.4328C178.046 53.8556 171.818 53.7403 166.014 53.7402L154.808 53.7402C152.811 53.7402 150.722 53.8708 149.14 55.0897C147.914 56.0348 146.85 57.4322 146.85 59.2419C146.85 61.2697 146.791 64.1661 146.74 66.6286C146.712 68.0213 146.686 69.2754 146.676 70.155ZM158.412 100.071V74.8459C158.412 73.2416 158.676 71.6147 159.59 70.2962C161.532 67.4936 165.283 64.4146 170.759 65.7716C179.193 68.3755 174.671 75.1096 173.889 76.0074C173.839 76.0644 173.784 76.131 173.721 76.2058C172.8 77.3112 170.394 80.199 163.716 79.7786V96.2995L158.412 100.071Z" fill="#EF225D"/>
<path d="M182.202 104.515C185.444 104.515 188.072 101.782 188.072 98.4106C188.072 95.0392 185.444 92.3062 182.202 92.3062C178.96 92.3062 176.332 95.0392 176.332 98.4106C176.332 101.782 178.96 104.515 182.202 104.515Z" fill="#EF225D"/>
<path d="M228.185 95.2114H221.974L215.165 83.7397H209.828V95.2114H204.445V64.4819H217.925C220.931 64.4819 223.354 65.3726 225.194 67.154C227.035 68.9356 227.955 71.2544 227.955 74.1109C227.955 76.6908 227.25 78.764 225.839 80.3304C224.428 81.8662 222.71 82.803 220.686 83.1408L228.185 95.2114ZM217.189 78.9944C218.723 78.9944 219.98 78.549 220.962 77.6583C221.943 76.7677 222.434 75.5851 222.434 74.1109C222.434 72.6366 221.943 71.4541 220.962 70.5633C219.98 69.6727 218.723 69.2273 217.189 69.2273H209.828V78.9944H217.189Z" fill="white"/>
<path d="M233.826 70.2334C233.029 70.2334 232.323 69.9416 231.71 69.358C231.127 68.7745 230.836 68.0681 230.836 67.2388C230.836 66.4095 231.127 65.7031 231.71 65.1195C232.323 64.5359 233.029 64.2441 233.826 64.2441C234.654 64.2441 235.36 64.5359 235.943 65.1195C236.525 65.7031 236.817 66.4095 236.817 67.2388C236.817 68.0681 236.525 68.7745 235.943 69.358C235.36 69.9416 234.654 70.2334 233.826 70.2334ZM236.265 95.204H231.434V72.9516H236.265V95.204Z" fill="white"/>
<path d="M257.379 95.1991H239.758V91.5595L250.403 77.3696L239.758 77.1852V72.9468H257.194V76.4942L246.107 91.0067H257.379V95.1991Z" fill="white"/>
<path d="M279.292 95.213H274.461V92.8173C272.743 94.7831 270.351 95.7659 267.284 95.7659C265.26 95.7659 263.465 95.1209 261.901 93.8309C260.337 92.5102 259.555 90.6981 259.555 88.3945C259.555 86.0295 260.321 84.2327 261.855 83.0041C263.419 81.7755 265.229 81.1613 267.284 81.1613C270.443 81.1613 272.835 82.1134 274.461 84.0177V80.7006C274.461 79.4106 273.986 78.397 273.035 77.6598C272.084 76.9227 270.827 76.5541 269.262 76.5541C266.778 76.5541 264.585 77.491 262.683 79.3646L260.705 76.0013C263.22 73.6056 266.333 72.4077 270.044 72.4077C272.774 72.4077 274.998 73.0528 276.715 74.3427C278.433 75.6328 279.292 77.6752 279.292 80.4703V95.213ZM269.17 92.4488C271.593 92.4488 273.357 91.6809 274.461 90.1452V86.782C273.357 85.2463 271.593 84.4784 269.17 84.4784C267.79 84.4784 266.655 84.847 265.766 85.5841C264.876 86.3213 264.432 87.2888 264.432 88.4866C264.432 89.6845 264.876 90.652 265.766 91.3892C266.655 92.0956 267.79 92.4488 269.17 92.4488Z" fill="white"/>
<path d="M305.244 95.2793H303.956L285.835 70.3045V95.2793H284.547V68.1929H285.835L303.956 92.9239V68.1929H305.244V95.2793Z" fill="white"/>
<path d="M318.736 95.7544C316.051 95.7544 313.863 94.7797 312.172 92.8305C310.508 90.8542 309.676 88.3906 309.676 85.4396C309.676 82.5157 310.508 80.0793 312.172 78.13C313.863 76.1537 316.051 75.1655 318.736 75.1655C321.447 75.1655 323.635 76.1402 325.3 78.0894C326.963 80.0386 327.796 82.4887 327.796 85.4396C327.796 88.3906 326.963 90.8542 325.3 92.8305C323.635 94.7797 321.447 95.7544 318.736 95.7544ZM318.736 94.6579C321.124 94.6579 323.004 93.7645 324.373 91.9777C325.768 90.1639 326.467 87.9845 326.467 85.4396C326.467 82.9219 325.768 80.7695 324.373 78.9828C323.004 77.169 321.124 76.2619 318.736 76.2619C316.374 76.2619 314.495 77.169 313.098 78.9828C311.702 80.7695 311.005 82.9219 311.005 85.4396C311.005 87.9845 311.702 90.1639 313.098 91.9777C314.495 93.7645 316.374 94.6579 318.736 94.6579Z" fill="white"/>
<path d="M338.869 95.2798H337.46L329.125 75.6655H330.534L338.185 93.8585L345.795 75.6655H347.204L338.869 95.2798Z" fill="white"/>
<path d="M363.327 95.2671H362.119V92.8711C360.374 94.7932 358.133 95.7544 355.395 95.7544C353.569 95.7544 351.972 95.1723 350.603 94.0082C349.261 92.817 348.59 91.2197 348.59 89.2163C348.59 87.2129 349.261 85.6292 350.603 84.4651C351.945 83.2738 353.543 82.6782 355.395 82.6782C358.133 82.6782 360.374 83.6393 362.119 85.5615V81.1351C362.119 79.6189 361.595 78.4278 360.549 77.5614C359.502 76.6951 358.2 76.2619 356.643 76.2619C354.173 76.2619 352.093 77.2907 350.402 79.3483L349.475 78.5361C350.469 77.3719 351.515 76.5191 352.617 75.9776C353.717 75.4363 355.059 75.1655 356.643 75.1655C358.629 75.1655 360.24 75.6798 361.475 76.7086C362.71 77.7103 363.327 79.1722 363.327 81.0945V95.2671ZM355.717 94.6579C358.482 94.6579 360.616 93.6563 362.119 91.6529V86.7797C360.616 84.7764 358.482 83.7747 355.717 83.7747C353.972 83.7747 352.563 84.3025 351.489 85.3585C350.441 86.3872 349.919 87.6732 349.919 89.2163C349.919 90.7595 350.441 92.059 351.489 93.1148C352.563 94.1436 353.972 94.6579 355.717 94.6579Z" fill="white"/>
</g>
<defs>
<clipPath id="clip0_4001_13428">
<rect width="216.65" height="52.5212" fill="white" transform="translate(146.676 53.7393)"/>
</clipPath>
</defs>
</svg>
