<svg width="586" height="160" viewBox="0 0 586 160" fill="none" xmlns="http://www.w3.org/2000/svg">
<rect width="586" height="160" rx="16" fill="#303031"/>
<g clip-path="url(#clip0_5372_11893)">
<path d="M275.311 55.8441H218.434V67.2744H239.21V104.161H254.466V67.2744H275.305V55.8441H275.311ZM401.124 55.8441V67.2744H421.9V104.161H437.155V67.2744H457.995V55.8441H401.118H401.124ZM203.173 74.3619C200.27 73.9159 196.915 73.6505 193.077 73.5708L184.961 73.4434C175.03 73.316 173.793 71.2986 173.793 69.2865C173.793 67.2744 174.637 65.1295 186.326 65.1295H187.366C199.962 65.1295 201.066 69.0263 201.326 70.911H217.038V70.2633C217.038 64.8375 214.145 59.0083 203.179 56.4016C199.452 55.515 194.792 55 188.99 55H184.51C180.094 55 176.399 55.3079 173.299 55.8494V55H169.403C150.634 55 144.736 60.5107 143.42 66.6161V55.9078C131.381 58.1217 128.648 64.0306 128.648 69.743V70.327C128.648 76.4642 132.31 81.6511 143.42 83.642V73.2629C144.811 79.3948 151.037 84.0348 166.675 84.4808L173.299 84.6347V83.6897C175.757 84.1145 178.57 84.3852 181.782 84.4755L190.094 84.6719C201.263 84.932 202.754 86.7477 202.754 89.5402C202.754 92.1363 201.326 94.6687 188.597 94.6687H187.69C175.226 94.6687 173.533 89.8641 173.342 87.0079H172.986V94.6687H172.588C160.125 94.6687 158.431 89.8641 158.24 87.0079H128V87.7246C128 92.7946 129.853 100.753 143.42 103.779V93.4158C145.549 99.0805 152.04 105.005 170.698 105.005H173.294V103.853C176.691 104.581 180.81 105.005 185.805 105.005H190.285C195.445 105.005 199.686 104.634 203.173 103.975C216.093 101.533 218.594 95.1253 218.594 88.8341V87.9263C218.594 80.3451 214.023 76.0395 203.173 74.3672V74.3619ZM172.981 73.4912L169.854 73.4434C159.923 73.316 158.686 71.2986 158.686 69.2865C158.686 67.2744 159.53 65.1295 171.219 65.1295H172.259C172.509 65.1295 172.747 65.1295 172.981 65.1348V73.4912ZM388.283 80.7008V79.1028C393.485 79.1028 397.875 75.2485 397.875 68.8352V68.3786C397.875 61.4292 393.007 55.8441 376.903 55.8441H337.946V104.156H353.075V87.0132H372.81C380.279 87.0132 382.874 89.6093 382.874 95.5182V104.156H398.066V91.4886C398.066 85.5904 393.22 80.7008 388.278 80.7008H388.283ZM382.099 71.5587C382.099 74.2185 380.284 76.2996 375.995 76.2996H353.075V66.8178H375.995C380.411 66.8178 382.099 68.9626 382.099 71.495V71.5587ZM290.227 55.8441L265.815 104.156H281.203L285.555 95.3217H314.84L319.384 104.156H335.68L309.835 55.8441H290.227ZM290.943 84.4171L299.42 67.2744H300.402L309.251 84.4171H290.943Z" fill="#FF0019"/>
</g>
<defs>
<clipPath id="clip0_5372_11893">
<rect width="330" height="50" fill="white" transform="translate(128 55)"/>
</clipPath>
</defs>
</svg>
