<svg width="510" height="160" viewBox="0 0 510 160" fill="none" xmlns="http://www.w3.org/2000/svg">
<rect width="510" height="160" rx="16" fill="#1B1C1C"/>
<g clip-path="url(#clip0_4001_13426)">
<mask id="mask0_4001_13426" style="mask-type:luminance" maskUnits="userSpaceOnUse" x="21" y="58" width="468" height="44">
<path d="M488.666 58.3159H21.332V101.677H488.666V58.3159Z" fill="white"/>
</mask>
<g mask="url(#mask0_4001_13426)">
<path d="M53.1782 95.9435H33.7622L30.7751 101.677H21.332L43.4943 58.3159L65.6565 101.677H56.1653L53.1782 95.9435ZM37.5201 88.4758H49.3239L43.3979 76.9611L37.5201 88.4758Z" fill="white"/>
<path d="M97.1635 89.7285L85.167 78.9846V101.677H75.9648V58.3159L97.1153 77.6356L118.507 58.3159V101.677H109.353V78.9846L97.1635 89.7285Z" fill="white"/>
<path d="M166.011 68.2395H145.439V76.2854H164.036V84.6685H145.439V93.3407H166.349V101.676H136.285V59.8564H166.06V68.2395H166.011Z" fill="white"/>
<path d="M218.526 81.0069C218.526 93.2443 209.372 101.676 195.593 101.676H181.91V59.8564H195.978C209.902 59.8564 218.526 68.6732 218.526 81.0069ZM209.324 80.766C209.324 72.8647 204.072 68.2395 196.557 68.2395H191.112V93.3407H196.508C203.88 93.2925 209.324 88.6673 209.324 80.766Z" fill="white"/>
<path d="M229.32 59.8564H255.722V68.2395H247.098V93.3407H255.722V101.676H229.32V93.2925H237.944V68.2395H229.32V59.8564Z" fill="white"/>
<path d="M296.867 95.9435H277.403L274.464 101.677H264.973L287.135 58.3159L309.297 101.677H299.806L296.867 95.9435ZM281.209 88.4758H292.965L287.039 76.9611L281.209 88.4758Z" fill="white"/>
<path d="M310.117 59.8564H346.926V68.2395H333.147V101.676H323.944V68.2395H310.165V59.8564H310.117Z" fill="white"/>
<path d="M388.6 68.2395H368.028V76.2854H386.625V84.6685H368.028V93.3407H388.889V101.676H358.777V59.8564H388.552L388.6 68.2395Z" fill="white"/>
<path d="M413.698 82.3077V101.676H404.496V59.8564H413.698V78.5498L428.296 59.9046H439.426L423.479 80.1397L440.823 101.676H429.886L413.698 82.3077Z" fill="white"/>
<path d="M476.237 95.9435H456.773L453.834 101.677H444.391L466.553 58.3159L488.715 101.677H479.272L476.237 95.9435ZM460.579 88.4758H472.334L466.408 76.9611L460.579 88.4758Z" fill="white"/>
</g>
</g>
<defs>
<clipPath id="clip0_4001_13426">
<rect width="467.334" height="43.3609" fill="white" transform="translate(21.332 58.3193)"/>
</clipPath>
</defs>
</svg>
