<svg width="120" height="120" viewBox="0 0 120 120" fill="none" xmlns="http://www.w3.org/2000/svg">
<g clip-path="url(#clip0_4339_8270)">
<mask id="mask0_4339_8270" style="mask-type:luminance" maskUnits="userSpaceOnUse" x="-1" y="-1" width="121" height="121">
<path d="M-0.0078125 -0.00195312H119.992V119.998H-0.0078125V-0.00195312Z" fill="white"/>
</mask>
<g mask="url(#mask0_4339_8270)">
<path d="M17.992 -0.00195312H101.992C102.287 -0.00195312 102.581 0.00521962 102.876 0.0195649C103.17 0.0339103 103.463 0.0557542 103.756 0.0844449C104.05 0.113462 104.342 0.149651 104.634 0.192687C104.925 0.236049 105.215 0.286258 105.504 0.343639C105.793 0.401346 106.08 0.4659 106.366 0.537301C106.652 0.609027 106.936 0.687601 107.217 0.773021C107.499 0.858441 107.779 0.950707 108.056 1.05015C108.334 1.14926 108.608 1.25522 108.881 1.36803C109.153 1.48083 109.422 1.60016 109.688 1.72601C109.955 1.85218 110.218 1.98455 110.477 2.12344C110.737 2.26233 110.993 2.40741 111.246 2.55869C111.499 2.71029 111.748 2.86777 111.993 3.03143C112.238 3.1951 112.478 3.36464 112.715 3.54004C112.952 3.71577 113.184 3.89672 113.411 4.08386C113.639 4.27067 113.862 4.46303 114.08 4.66093C114.299 4.85851 114.512 5.06162 114.72 5.26996C114.929 5.47829 115.132 5.69151 115.329 5.90995C115.527 6.12807 115.72 6.35107 115.906 6.57897C116.094 6.80654 116.274 7.03867 116.45 7.27537C116.626 7.51207 116.795 7.75268 116.959 7.99753C117.122 8.2427 117.28 8.49146 117.432 8.74413C117.583 8.99681 117.728 9.25307 117.867 9.51291C118.006 9.77243 118.138 10.0355 118.264 10.3019C118.39 10.5683 118.509 10.8376 118.622 11.1095C118.735 11.3817 118.841 11.6566 118.94 11.934C119.039 12.2111 119.132 12.4909 119.217 12.7729C119.303 13.0546 119.381 13.3386 119.453 13.6242C119.524 13.9101 119.589 14.1973 119.647 14.4862C119.704 14.775 119.754 15.0652 119.798 15.3567C119.841 15.6482 119.877 15.9403 119.906 16.2337C119.934 16.5268 119.956 16.8206 119.971 17.1146C119.985 17.409 119.992 17.7034 119.992 17.9979V101.998C119.992 102.292 119.985 102.587 119.971 102.881C119.956 103.175 119.934 103.469 119.906 103.762C119.877 104.055 119.841 104.348 119.798 104.639C119.754 104.931 119.704 105.221 119.647 105.51C119.589 105.798 119.524 106.086 119.453 106.372C119.381 106.657 119.303 106.941 119.217 107.223C119.132 107.505 119.039 107.785 118.94 108.062C118.841 108.339 118.735 108.614 118.622 108.886C118.509 109.158 118.39 109.427 118.264 109.694C118.138 109.96 118.006 110.223 117.867 110.483C117.728 110.743 117.583 110.999 117.432 111.252C117.28 111.504 117.122 111.753 116.959 111.998C116.795 112.243 116.626 112.484 116.45 112.72C116.274 112.957 116.094 113.189 115.906 113.417C115.72 113.645 115.527 113.868 115.329 114.086C115.132 114.304 114.929 114.517 114.72 114.726C114.512 114.934 114.299 115.137 114.08 115.335C113.862 115.533 113.639 115.725 113.411 115.912C113.184 116.099 112.952 116.28 112.715 116.456C112.478 116.631 112.238 116.801 111.993 116.964C111.748 117.128 111.499 117.285 111.246 117.437C110.993 117.588 110.737 117.733 110.477 117.872C110.218 118.011 109.955 118.144 109.688 118.27C109.422 118.396 109.153 118.515 108.881 118.628C108.608 118.741 108.334 118.847 108.056 118.946C107.779 119.045 107.499 119.137 107.217 119.223C106.936 119.308 106.652 119.387 106.366 119.458C106.08 119.53 105.793 119.594 105.504 119.652C105.215 119.71 104.925 119.76 104.634 119.803C104.342 119.846 104.05 119.882 103.756 119.911C103.463 119.94 103.17 119.962 102.876 119.976C102.581 119.991 102.287 119.998 101.992 119.998H17.992C17.6976 119.998 17.4032 119.991 17.1088 119.976C16.8147 119.962 16.521 119.94 16.2279 119.911C15.9345 119.882 15.6423 119.846 15.3509 119.803C15.0594 119.76 14.7692 119.71 14.4804 119.652C14.1915 119.594 13.9043 119.53 13.6183 119.458C13.3327 119.387 13.0488 119.308 12.7671 119.223C12.485 119.137 12.2053 119.045 11.9282 118.946C11.6507 118.847 11.3759 118.741 11.1037 118.628C10.8317 118.515 10.5624 118.396 10.2961 118.27C10.0297 118.144 9.7666 118.011 9.50675 117.872C9.24723 117.733 8.99097 117.588 8.7383 117.437C8.48563 117.285 8.23686 117.128 7.99169 116.964C7.74684 116.801 7.50623 116.631 7.26953 116.456C7.03283 116.28 6.8007 116.099 6.5728 115.912C6.34523 115.725 6.12223 115.533 5.90411 115.335C5.68567 115.137 5.47245 114.934 5.26411 114.726C5.05578 114.517 4.85266 114.304 4.65476 114.086C4.45718 113.868 4.26483 113.645 4.07801 113.417C3.89087 113.189 3.70992 112.957 3.53419 112.72C3.35879 112.484 3.18925 112.243 3.02558 111.998C2.86191 111.753 2.70444 111.504 2.55284 111.252C2.40156 110.999 2.25647 110.743 2.11758 110.483C1.9787 110.223 1.84633 109.96 1.72015 109.694C1.5943 109.427 1.47498 109.158 1.36217 108.886C1.24936 108.614 1.1434 108.339 1.04429 108.062C0.94485 107.785 0.852584 107.505 0.767164 107.223C0.681743 106.941 0.60317 106.657 0.531443 106.372C0.460042 106.086 0.395488 105.798 0.337781 105.51C0.280399 105.221 0.23019 104.931 0.186828 104.639C0.143466 104.348 0.107603 104.055 0.0785858 103.762C0.049895 103.469 0.028051 103.175 0.0137056 102.881C-0.000639732 102.587 -0.0078125 102.292 -0.0078125 101.998V17.9979C-0.0078125 17.7034 -0.000639732 17.409 0.0137056 17.1146C0.028051 16.8206 0.049895 16.5268 0.0785858 16.2337C0.107603 15.9403 0.143466 15.6482 0.186828 15.3567C0.23019 15.0652 0.280399 14.775 0.337781 14.4862C0.395488 14.1973 0.460042 13.9101 0.531443 13.6242C0.60317 13.3386 0.681743 13.0546 0.767164 12.7729C0.852584 12.4909 0.94485 12.2111 1.04429 11.934C1.1434 11.6566 1.24936 11.3817 1.36217 11.1095C1.47498 10.8376 1.5943 10.5683 1.72015 10.3019C1.84633 10.0355 1.9787 9.77243 2.11758 9.51291C2.25647 9.25307 2.40156 8.99681 2.55284 8.74413C2.70444 8.49146 2.86191 8.2427 3.02558 7.99753C3.18925 7.75268 3.35879 7.51207 3.53419 7.27537C3.70992 7.03867 3.89087 6.80654 4.07801 6.57897C4.26483 6.35107 4.45718 6.12807 4.65476 5.90995C4.85266 5.69151 5.05578 5.47829 5.26411 5.26996C5.47245 5.06162 5.68567 4.85851 5.90411 4.66093C6.12223 4.46303 6.34523 4.27067 6.5728 4.08386C6.8007 3.89672 7.03283 3.71577 7.26953 3.54004C7.50623 3.36464 7.74684 3.1951 7.99169 3.03143C8.23686 2.86777 8.48563 2.71029 8.7383 2.55869C8.99097 2.40741 9.24723 2.26233 9.50675 2.12344C9.7666 1.98455 10.0297 1.85218 10.2961 1.72601C10.5624 1.60016 10.8317 1.48083 11.1037 1.36803C11.3759 1.25522 11.6507 1.14926 11.9282 1.05015C12.2053 0.950707 12.485 0.858441 12.7671 0.773021C13.0488 0.687601 13.3327 0.609027 13.6183 0.537301C13.9043 0.4659 14.1915 0.401346 14.4804 0.343639C14.7692 0.286258 15.0594 0.236049 15.3509 0.192687C15.6423 0.149651 15.9345 0.113462 16.2279 0.0844449C16.521 0.0557542 16.8147 0.0339103 17.1088 0.0195649C17.4032 0.00521962 17.6976 -0.00195312 17.992 -0.00195312Z" fill="white"/>
</g>
<path d="M82.203 84.5735C89.8872 77.3985 93.3023 65.4404 91.2533 53.9946H60.6875V66.6362H78.1048C77.4219 70.7361 75.0311 74.1526 71.616 76.3736L82.203 84.5735Z" fill="#4285F4"/>
<path d="M31.6523 74.4779C31.9322 75.029 32.2272 75.5718 32.5374 76.1062C32.8479 76.6409 33.173 77.1661 33.513 77.6822C33.8531 78.1981 34.2073 78.7043 34.5759 79.2002C34.9446 79.6964 35.3268 80.1814 35.723 80.656C36.119 81.1303 36.528 81.5932 36.9503 82.0445C37.3724 82.4958 37.8071 82.9347 38.2542 83.3615C38.7012 83.788 39.1599 84.2018 39.6302 84.6027C40.1005 85.0033 40.5818 85.3904 41.0742 85.764C41.5663 86.1376 42.0687 86.4969 42.5813 86.8419C43.0939 87.187 43.6158 87.5173 44.1472 87.8329C44.6783 88.1484 45.218 88.4488 45.7662 88.734C46.3144 89.0189 46.8703 89.2884 47.4337 89.5419C47.9971 89.7955 48.5672 90.0331 49.1442 90.2544C49.7209 90.4759 50.3036 90.6807 50.892 90.8691C51.4804 91.0576 52.0737 91.2294 52.6718 91.3841C53.2699 91.539 53.8719 91.6769 54.4778 91.7978C55.0838 91.9185 55.6926 92.0222 56.3045 92.1087C56.9161 92.1949 57.5299 92.2641 58.1456 92.3156C58.7613 92.3672 59.3779 92.4017 59.9955 92.4183C60.6131 92.4352 61.2307 92.4345 61.8483 92.4164C62.4659 92.3983 63.0823 92.3627 63.698 92.3097C64.3134 92.2567 64.927 92.1864 65.5386 92.0987C66.1503 92.011 66.7589 91.9059 67.3646 91.7838C67.9703 91.6617 68.572 91.5226 69.1696 91.3665C69.7675 91.2104 70.3604 91.0374 70.9485 90.8478C71.5364 90.6581 72.1186 90.4519 72.6951 90.2292C73.2714 90.0065 73.841 89.7679 74.4039 89.5129C74.9669 89.2582 75.522 88.9878 76.0695 88.7014C76.6173 88.4153 77.1562 88.1137 77.6869 87.797C78.2173 87.4802 78.7385 87.1487 79.2504 86.8027C79.7622 86.4565 80.2639 86.096 80.7554 85.7215C81.2468 85.3469 81.7274 84.9586 82.1967 84.557L71.6098 76.3572C62.5597 82.3361 47.533 80.1154 42.4101 66.1072L31.6523 74.4779Z" fill="#34A853"/>
<path d="M42.424 66.1449C41.0579 61.8741 41.0579 57.945 42.424 53.6742L31.6663 45.3035C27.7389 53.1619 26.5436 64.2657 31.6663 74.5156L42.424 66.1449Z" fill="#FBBC02"/>
<path d="M42.4101 53.6766C46.1669 41.8894 62.2181 35.0561 72.9759 45.135L82.3675 35.9102C69.0485 23.098 43.0932 23.6103 31.6523 45.3059L42.4101 53.6766Z" fill="#EA4335"/>
</g>
<defs>
<clipPath id="clip0_4339_8270">
<rect width="120" height="120" rx="60" fill="white"/>
</clipPath>
</defs>
</svg>
