<svg width="37" height="44" viewBox="0 0 37 44" fill="none" xmlns="http://www.w3.org/2000/svg">
<path d="M30.6249 23.3991C30.6698 20.0025 32.5381 16.7885 35.5021 15.0095C33.6323 12.4023 30.5004 10.7492 27.2419 10.6497C23.7665 10.2936 20.3973 12.6801 18.6263 12.6801C16.821 12.6801 14.0943 10.6851 11.158 10.7441C7.33074 10.8648 3.76277 12.9892 1.90073 16.2559C-2.10193 23.0217 0.883694 32.9651 4.71791 38.434C6.63624 41.112 8.87823 44.1033 11.8118 43.9973C14.6825 43.881 15.7547 42.2101 19.2199 42.2101C22.6529 42.2101 23.6588 43.9973 26.6519 43.9298C29.7323 43.881 31.6731 41.2399 33.5241 38.5366C34.9024 36.6284 35.963 34.5195 36.6667 32.2879C33.0466 30.7931 30.6292 27.2364 30.6249 23.3991Z" fill="#F8F8F8"/>
<path d="M24.9714 7.05308C26.651 5.08461 27.4784 2.55448 27.278 0C24.712 0.263121 22.3418 1.46043 20.6395 3.35338C18.975 5.20288 18.1087 7.68849 18.2725 10.1453C20.8394 10.1711 23.3629 9.00628 24.9714 7.05308Z" fill="#F8F8F8"/>
</svg>
