<svg width="120" height="120" viewBox="0 0 120 120" fill="none" xmlns="http://www.w3.org/2000/svg">
<path d="M85 44.9997C84.9999 42.4406 84.0236 39.8815 82.0711 37.9289C80.1184 35.9763 77.5592 35 75 35M75 75C91.5685 75 105 61.5685 105 45C105 28.4315 91.5685 15 75 15C58.4315 15 45 28.4315 45 45C45 46.3684 45.0916 47.7154 45.2691 49.0352C45.5609 51.2059 45.7068 52.2913 45.6086 52.9779C45.5063 53.6933 45.376 54.0787 45.0234 54.7095C44.685 55.315 44.0885 55.9114 42.8957 57.1043L17.3431 82.6569C16.4784 83.5216 16.046 83.954 15.7368 84.4586C15.4627 84.9059 15.2606 85.3937 15.1382 85.9038C15 86.4793 15 87.0908 15 88.3137V97C15 99.8003 15 101.2 15.545 102.27C16.0243 103.211 16.7892 103.976 17.73 104.455C18.7996 105 20.1997 105 23 105H35V95H45V85H55L62.8957 77.1043C64.0886 75.9114 64.685 75.315 65.2905 74.9766C65.9213 74.624 66.3067 74.4937 67.0221 74.3914C67.7087 74.2932 68.7941 74.4391 70.9648 74.7309C72.2846 74.9084 73.6316 75 75 75Z" stroke="#FF5708" stroke-width="6.15385" stroke-linecap="round" stroke-linejoin="round"/>
</svg>
