<svg width="120" height="120" viewBox="0 0 120 120" fill="none" xmlns="http://www.w3.org/2000/svg">
<path d="M40 15H39C30.5992 15 26.3988 15 23.1901 16.6349C20.3677 18.073 18.073 20.3677 16.6349 23.1901C15 26.3988 15 30.5992 15 39V40M40 105H39C30.5992 105 26.3988 105 23.1901 103.365C20.3677 101.927 18.073 99.6323 16.6349 96.8099C15 93.6012 15 89.4008 15 81V80M105 40V39C105 30.5992 105 26.3988 103.365 23.1901C101.927 20.3677 99.6323 18.073 96.8099 16.6349C93.6012 15 89.4008 15 81 15H80M105 80V81C105 89.4008 105 93.6012 103.365 96.8099C101.927 99.6323 99.6323 101.927 96.8099 103.365C93.6012 105 89.4008 105 81 105H80M15 60H15.05M37.5 60H37.55M82.5 60H82.55M60 60H60.05M105 60H105.05" stroke="white" stroke-width="7.86885" stroke-linecap="round" stroke-linejoin="round"/>
</svg>
