<svg width="31" height="40" viewBox="0 0 31 40" fill="none" xmlns="http://www.w3.org/2000/svg">
<path d="M0 17.2071V30.0482H3.21027V33.2584H6.42055V40H12.199V33.2584H17.9775V40H23.756V33.2584H26.9663V30.0482H30.1766V17.2071H0Z" fill="#F8F8F8"/>
<path d="M29.0524 2.27926L26.7732 0L22.7924 4.01288C20.7379 2.24726 18.0412 1.1557 15.0878 1.1557C12.1343 1.1557 9.43769 2.24719 7.38311 4.01288L3.37024 0.0321394L1.09098 2.3114L5.20013 6.42055C3.91602 8.31457 3.17769 10.5939 3.17769 13.0337V13.9968H26.9337V13.0337C26.9337 10.5939 26.1954 8.31464 24.9113 6.42055L29.0524 2.27926ZM13.4824 10.7867H10.2721V7.57639H13.4824V10.7867ZM19.903 10.7867H16.6927V7.57639H19.903V10.7867Z" fill="#F8F8F8"/>
</svg>
