<svg width="33" height="27" viewBox="0 0 33 27" fill="none" xmlns="http://www.w3.org/2000/svg">
<path d="M24.6 21.6C22.269 23.3768 19.4306 24.3612 16.5 24.4091C6.95455 24.4091 1.5 13.5 1.5 13.5C3.19621 10.3389 5.54882 7.57719 8.4 5.4M13.6364 2.91818C14.575 2.69847 15.536 2.58864 16.5 2.59091C26.0455 2.59091 31.5 13.5 31.5 13.5C30.6722 15.0486 29.6851 16.5065 28.5545 17.85M19.3909 16.3909C19.0164 16.7928 18.5648 17.1152 18.0629 17.3388C17.5611 17.5624 17.0194 17.6826 16.4701 17.6923C15.9208 17.702 15.3752 17.601 14.8658 17.3952C14.3564 17.1895 13.8937 16.8832 13.5052 16.4948C13.1168 16.1063 12.8105 15.6436 12.6048 15.1342C12.399 14.6248 12.298 14.0792 12.3077 13.5299C12.3174 12.9806 12.4376 12.4389 12.6612 11.9371C12.8848 11.4352 13.2072 10.9836 13.6091 10.6091M4.5 1.5L28.5 25.5" stroke="white" stroke-width="3" stroke-linecap="round" stroke-linejoin="round"/>
</svg>
